<svg width="55" height="69" viewBox="0 0 55 69" fill="none" xmlns="http://www.w3.org/2000/svg">
<path d="M0 58.8752C0 49.1411 7.89109 41.25 17.6252 41.25H37.3748C47.1089 41.25 55 49.1411 55 58.8752C55 62.8905 52.2817 66.3768 48.3205 67.0331C43.3627 67.8545 36.007 68.75 27.5 68.75C18.993 68.75 11.6373 67.8545 6.67953 67.0331C2.71825 66.3768 0 62.8905 0 58.8752Z" fill="#F9F7ED"/>
<path d="M10.3125 17.1875C10.3125 7.69511 18.0076 0 27.5 0C36.9924 0 44.6875 7.69511 44.6875 17.1875C44.6875 26.6799 36.9924 34.375 27.5 34.375C18.0076 34.375 10.3125 26.6799 10.3125 17.1875Z" fill="#F9F7ED"/>
</svg>
