<svg width="16" height="20" viewBox="0 0 16 20" fill="none" xmlns="http://www.w3.org/2000/svg">
<path d="M0 16.0501C0 12.1564 2.29559 9 5.12734 9H10.8727C13.7044 9 16 12.1564 16 16.0501C16 17.6562 15.2092 19.0507 14.0569 19.3132C12.6146 19.6418 10.4748 20 8 20C5.52524 20 3.3854 19.6418 1.94314 19.3132C0.790764 19.0507 0 17.6562 0 16.0501Z" fill="#373737"/>
<path d="M3 5C3 2.23858 5.23858 0 8 0C10.7614 0 13 2.23858 13 5C13 7.76142 10.7614 10 8 10C5.23858 10 3 7.76142 3 5Z" fill="#373737"/>
</svg>
